<svg width="101" height="101" viewBox="0 0 101 101" fill="none" xmlns="http://www.w3.org/2000/svg">
<path d="M92.4474 11.874C94.7895 11.874 96.6882 9.97535 96.6882 7.63327C96.6882 5.29119 94.7895 3.39256 92.4474 3.39256C90.1054 3.39256 88.2067 5.29119 88.2067 7.63327C88.2067 9.97535 90.1054 11.874 92.4474 11.874Z" stroke="#4C241D" stroke-width="3.39257" stroke-linecap="round" stroke-linejoin="round"/>
<path d="M36.4701 72.9402C56.612 72.9402 72.9402 56.612 72.9402 36.4701C72.9402 16.3282 56.612 0 36.4701 0C16.3282 0 0 16.3282 0 36.4701C0 56.612 16.3282 72.9402 36.4701 72.9402Z" fill="#E5EFEF"/>
<path d="M33.6492 7.90977L27.417 14.1419" stroke="#4C241D" stroke-width="3.39257" stroke-linecap="round" stroke-linejoin="round"/>
<path d="M27.417 7.90977L33.6492 14.1419" stroke="#4C241D" stroke-width="3.39257" stroke-linecap="round" stroke-linejoin="round"/>
<path d="M23.748 22.0517C24.6848 22.0517 25.4443 21.2922 25.4443 20.3554C25.4443 19.4186 24.6848 18.6591 23.748 18.6591C22.8111 18.6591 22.0517 19.4186 22.0517 20.3554C22.0517 21.2922 22.8111 22.0517 23.748 22.0517Z" fill="#4C241D"/>
<path d="M9.76382 54.2811C13.4498 73.3795 24.7369 88.4052 39.0688 93.2956H32.2294V98.3844H66.1551V93.2956H59.3156C73.6475 88.4052 84.9295 73.3795 88.6206 54.2811" fill="white"/>
<path d="M9.76382 54.2811C13.4498 73.3795 24.7369 88.4052 39.0688 93.2956H32.2294V98.3844H66.1551V93.2956H59.3156C73.6475 88.4052 84.9295 73.3795 88.6206 54.2811" stroke="#4C241D" stroke-width="3.39257" stroke-linecap="round" stroke-linejoin="round"/>
<path d="M37.3182 49.1922C42.9392 49.1922 47.4959 44.6355 47.4959 39.0145C47.4959 33.3935 42.9392 28.8368 37.3182 28.8368C31.6972 28.8368 27.1405 33.3935 27.1405 39.0145C27.1405 44.6355 31.6972 49.1922 37.3182 49.1922Z" fill="#BF7E68" stroke="#4C241D" stroke-width="3.39257" stroke-linecap="round" stroke-linejoin="round"/>
<path d="M50.0404 42.4071C57.0666 42.4071 62.7625 36.7112 62.7625 29.685C62.7625 22.6587 57.0666 16.9628 50.0404 16.9628C43.0141 16.9628 37.3182 22.6587 37.3182 29.685C37.3182 36.7112 43.0141 42.4071 50.0404 42.4071Z" fill="#F4AEAB" stroke="#4C241D" stroke-width="3.39257" stroke-linecap="round" stroke-linejoin="round"/>
<path d="M62.7625 49.1922C68.3835 49.1922 72.9402 44.6355 72.9402 39.0145C72.9402 33.3935 68.3835 28.8368 62.7625 28.8368C57.1415 28.8368 52.5848 33.3935 52.5848 39.0145C52.5848 44.6355 57.1415 49.1922 62.7625 49.1922Z" fill="#E2E2E2" stroke="#4C241D" stroke-width="3.39257" stroke-linecap="round" stroke-linejoin="round"/>
<path d="M37.3183 49.1922C37.3183 46.4929 36.246 43.9042 34.3373 41.9955C32.4286 40.0868 29.8399 39.0145 27.1406 39.0145C24.4413 39.0145 21.8525 40.0868 19.9438 41.9955C18.0352 43.9042 16.9629 46.4929 16.9629 49.1922H37.3183Z" fill="#77A052" stroke="#4C241D" stroke-width="3.39257" stroke-linecap="round" stroke-linejoin="round"/>
<path d="M59.3699 49.1922C59.3699 46.4929 58.2976 43.9042 56.3889 41.9955C54.4803 40.0868 51.8915 39.0145 49.1922 39.0145C46.4929 39.0145 43.9042 40.0868 41.9955 41.9955C40.0868 43.9042 39.0145 46.4929 39.0145 49.1922H59.3699Z" fill="#FFCE56" stroke="#4C241D" stroke-width="3.39257" stroke-linecap="round" stroke-linejoin="round"/>
<path d="M81.4216 49.1922C81.4216 46.4929 80.3493 43.9042 78.4406 41.9955C76.532 40.0868 73.9432 39.0145 71.2439 39.0145C68.5446 39.0145 65.9559 40.0868 64.0472 41.9955C62.1385 43.9042 61.0662 46.4929 61.0662 49.1922H81.4216Z" fill="#816982" stroke="#4C241D" stroke-width="3.39257" stroke-linecap="round" stroke-linejoin="round"/>
<path d="M98.3845 98.3844C98.3845 95.6851 97.3122 93.0964 95.4035 91.1877C93.4948 89.279 90.906 88.2067 88.2068 88.2067C85.5075 88.2067 82.9187 89.279 81.01 91.1877C79.1013 93.0964 78.0291 95.6851 78.0291 98.3844H98.3845Z" fill="#E66353" stroke="#4C241D" stroke-width="3.39257" stroke-linecap="round" stroke-linejoin="round"/>
<path d="M42.0186 64.9185L46.4409 65.3985L49.2279 61.9313L52.0148 65.3985L56.4371 64.9185L55.9553 69.3407L59.4225 72.1277L55.9553 74.9147L56.4371 79.3369L52.0148 78.8551L49.2279 82.3223L46.4409 78.8551L42.0186 79.3369L42.4987 74.9147L39.0315 72.1277L42.4987 69.3407L42.0186 64.9185Z" fill="#FFCE56" stroke="#4C241D" stroke-width="3.39257" stroke-linecap="round" stroke-linejoin="round"/>
<path d="M19.9822 54.2811H9.32958C8.65476 54.2811 8.00757 54.013 7.5304 53.5358C7.05323 53.0586 6.78516 52.4114 6.78516 51.7366C6.78516 51.0618 7.05323 50.4146 7.5304 49.9374C8.00757 49.4603 8.65476 49.1922 9.32958 49.1922H89.0549C89.7297 49.1922 90.3769 49.4603 90.8541 49.9374C91.3313 50.4146 91.5993 51.0618 91.5993 51.7366C91.5993 52.4114 91.3313 53.0586 90.8541 53.5358C90.3769 54.013 89.7297 54.2811 89.0549 54.2811H32.2294" fill="white"/>
<path d="M19.9822 54.2811H9.32958C8.65476 54.2811 8.00757 54.013 7.5304 53.5358C7.05323 53.0586 6.78516 52.4114 6.78516 51.7366C6.78516 51.0618 7.05323 50.4146 7.5304 49.9374C8.00757 49.4603 8.65476 49.1922 9.32958 49.1922H89.0549C89.7297 49.1922 90.3769 49.4603 90.8541 49.9374C91.3313 50.4146 91.5993 51.0618 91.5993 51.7366C91.5993 52.4114 91.3313 53.0586 90.8541 53.5358C90.3769 54.013 89.7297 54.2811 89.0549 54.2811H32.2294" stroke="#4C241D" stroke-width="3.39257" stroke-linecap="round" stroke-linejoin="round"/>
<path d="M39.0145 93.2956H47.4959" stroke="#4C241D" stroke-width="3.39257" stroke-linecap="round" stroke-linejoin="round"/>
<path d="M96.6882 98.3844H3.39258" stroke="#4C241D" stroke-width="3.39257" stroke-linecap="round" stroke-linejoin="round"/>
</svg>
