<svg width="22" height="17" viewBox="0 0 22 17" fill="none" xmlns="http://www.w3.org/2000/svg">
<path fill-rule="evenodd" clip-rule="evenodd" d="M6.76302 16.716C7.07864 16.9815 7.54859 16.9461 7.82091 16.6363L20.9863 1.65986C21.3565 1.23877 21.3081 0.595666 20.8791 0.234736C20.463 -0.115272 19.8435 -0.0686429 19.4846 0.3397L9.53862 11.6538C8.22034 13.1535 5.83235 12.9709 4.75736 11.2883L2.2391 7.34666C1.94596 6.88782 1.33956 6.74792 0.875031 7.03194C0.397339 7.32401 0.252589 7.95139 0.554035 8.42322L5.64136 16.386C5.74564 16.5492 5.96134 16.599 6.12659 16.498C6.2571 16.4182 6.42401 16.4308 6.54106 16.5292L6.76302 16.716Z" fill="#02F29E"/>
</svg>
