<svg width="19" height="17" viewBox="0 0 19 17" fill="none" xmlns="http://www.w3.org/2000/svg">
<path fill-rule="evenodd" clip-rule="evenodd" d="M13.0352 10.2074C11.8636 9.03587 11.8636 7.13637 13.0352 5.9648L16.6248 2.37516C17.0213 1.97872 17.0143 1.33383 16.6093 0.94609C16.2166 0.570086 15.5954 0.576835 15.211 0.961282L11.6213 4.55092C10.4498 5.72249 8.55025 5.72249 7.37868 4.55092L4.10563 1.27786C3.70918 0.881417 3.06429 0.888423 2.67655 1.29339C2.30055 1.68609 2.3073 2.30729 2.69175 2.69174L5.9648 5.9648C7.13638 7.13637 7.13638 9.03586 5.9648 10.2074L1.27787 14.8944C0.881427 15.2908 0.888433 15.9357 1.2934 16.3234C1.6861 16.6994 2.3073 16.6927 2.69175 16.3083L7.37868 11.6213C8.55026 10.4497 10.4498 10.4497 11.6213 11.6213L16.6248 16.6248C17.0213 17.0213 17.6662 17.0143 18.0539 16.6093C18.4299 16.2166 18.4232 15.5954 18.0387 15.211L13.0352 10.2074Z" fill="#F24D27"/>
</svg>