<svg width="14" height="16" viewBox="0 0 14 16" fill="none" xmlns="http://www.w3.org/2000/svg">
<path fill-rule="evenodd" clip-rule="evenodd" d="M7.0719 9.0139C7.85295 8.23286 7.85295 6.96652 7.0719 6.18548L1.73998 0.853553C1.54472 0.658291 1.54472 0.341709 1.73998 0.146447C1.93524 -0.0488155 2.25182 -0.0488155 2.44708 0.146447L9.4539 7.15326C9.64603 7.3454 9.64603 7.6569 9.4539 7.84903L9.15529 8.14764C9.12808 8.17486 9.12808 8.21898 9.15529 8.24619C9.1825 8.2734 9.1825 8.31752 9.15529 8.34473L1.84986 15.6502C1.6546 15.8454 1.33802 15.8454 1.14275 15.6502C0.947492 15.4549 0.947492 15.1383 1.14275 14.9431L7.0719 9.0139ZM11.0132 9.01391C11.7943 8.23286 11.7943 6.96653 11.0132 6.18548L5.68128 0.853553C5.48602 0.658291 5.48602 0.341709 5.68128 0.146447C5.87654 -0.0488155 6.19312 -0.0488156 6.38838 0.146447L13.3952 7.15327C13.5873 7.3454 13.5873 7.6569 13.3952 7.84903L13.0966 8.14764C13.0694 8.17485 13.0694 8.21897 13.0966 8.24618C13.1238 8.2734 13.1238 8.31752 13.0966 8.34473L5.79117 15.6502C5.59591 15.8454 5.27933 15.8454 5.08407 15.6502C4.8888 15.4549 4.8888 15.1383 5.08407 14.9431L11.0132 9.01391Z" fill="#B8B2B2"/>
</svg>
