<svg width="30" height="30" viewBox="0 0 30 30" fill="none" xmlns="http://www.w3.org/2000/svg">
<path d="M5.625 27.5V21.25M5.625 8.75V2.5M2.5 5.625H8.75M2.5 24.375H8.75M16.25 3.75L14.0823 9.38608C13.7298 10.3026 13.5535 10.7609 13.2794 11.1464C13.0365 11.488 12.738 11.7865 12.3964 12.0294C12.0109 12.3035 11.5526 12.4798 10.6361 12.8323L5 15L10.6361 17.1677C11.5526 17.5202 12.0109 17.6965 12.3964 17.9706C12.738 18.2135 13.0365 18.512 13.2794 18.8536C13.5535 19.2391 13.7298 19.6974 14.0823 20.6139L16.25 26.25L18.4177 20.6139C18.7702 19.6974 18.9465 19.2391 19.2206 18.8536C19.4635 18.512 19.762 18.2135 20.1036 17.9706C20.4891 17.6965 20.9474 17.5202 21.8639 17.1677L27.5 15L21.8639 12.8323C20.9474 12.4798 20.4891 12.3035 20.1036 12.0294C19.762 11.7865 19.4635 11.488 19.2206 11.1464C18.9465 10.7609 18.7702 10.3026 18.4177 9.38608L16.25 3.75Z" stroke="#1B56F2" stroke-width="2" stroke-linecap="round" stroke-linejoin="round"/>
</svg>
