<svg width="21" height="18" viewBox="0 0 21 18" fill="none" xmlns="http://www.w3.org/2000/svg">
<path d="M13 5C13.621 5.46574 14.125 6.06966 14.4721 6.76394C14.8193 7.45821 15 8.22378 15 9C15 9.77623 14.8193 10.5418 14.4721 11.2361C14.125 11.9303 13.621 12.5343 13 13M15.7 2C16.744 2.84365 17.586 3.91013 18.1645 5.12132C18.7429 6.33252 19.0431 7.65776 19.0431 9C19.0431 10.3422 18.7429 11.6675 18.1645 12.8787C17.586 14.0899 16.744 15.1564 15.7 16M4 12H2C1.73478 12 1.48043 11.8946 1.29289 11.7071C1.10536 11.5196 1 11.2652 1 11V7C1 6.73479 1.10536 6.48043 1.29289 6.2929C1.48043 6.10536 1.73478 6 2 6H4L7.5 1.5C7.5874 1.33023 7.73265 1.19733 7.90949 1.1253C8.08633 1.05327 8.2831 1.04686 8.46425 1.10725C8.6454 1.16763 8.79898 1.29081 8.89723 1.45454C8.99549 1.61827 9.03194 1.81175 9 2V16C9.03194 16.1883 8.99549 16.3817 8.89723 16.5455C8.79898 16.7092 8.6454 16.8324 8.46425 16.8928C8.2831 16.9531 8.08633 16.9467 7.90949 16.8747C7.73265 16.8027 7.5874 16.6698 7.5 16.5L4 12Z" stroke="#545F71" stroke-width="2" stroke-linecap="round" stroke-linejoin="round"/>
</svg>
